<?xml version="1.0" encoding="UTF-8" standalone="no"?> <svg xmlns="http://www.w3.org/2000/svg" xmlns:xlink="http://www.w3.org/1999/xlink" viewBox="0 0 64 64"><defs><style>.cls-1{fill:url(#linear-gradient);}.cls-2{fill:url(#linear-gradient-2);}.cls-3{fill:url(#linear-gradient-3);}.cls-4{fill:url(#linear-gradient-4);}.cls-5{fill:url(#linear-gradient-5);}</style><linearGradient id="linear-gradient" x1="12.76" y1="14.7" x2="41.43" y2="14.7" gradientUnits="userSpaceOnUse"><stop offset="0" stop-color="#17a6d7"/><stop offset="1" stop-color="#9d31fe"/></linearGradient><linearGradient id="linear-gradient-2" x1="18.68" y1="25.25" x2="35.51" y2="25.25" xlink:href="#linear-gradient"/><linearGradient id="linear-gradient-3" x1="18.68" y1="29.19" x2="35.51" y2="29.19" xlink:href="#linear-gradient"/><linearGradient id="linear-gradient-4" x1="22.22" y1="42.25" x2="31.97" y2="42.25" xlink:href="#linear-gradient"/><linearGradient id="linear-gradient-5" x1="3" y1="32" x2="61.01" y2="32" xlink:href="#linear-gradient"/></defs><g id="Layer_17" data-name="Layer 17"><path class="cls-1" d="M40.43,8H13.76a1,1,0,0,0-1,1V20.38a1,1,0,0,0,1,1H40.43a1,1,0,0,0,1-1V9A1,1,0,0,0,40.43,8Zm-1,11.36H14.76V10H39.43Z"/><path class="cls-2" d="M34.53,24.25H19.66a1,1,0,0,0,0,2H34.53A1,1,0,0,0,34.53,24.25Z"/><path class="cls-3" d="M34.53,28.19H19.66a1,1,0,0,0,0,2H34.53A1,1,0,0,0,34.53,28.19Z"/><path class="cls-4" d="M27.1,34.52c-3.41,0-4.88,9.13-4.88,10.58a4.88,4.88,0,1,0,9.75,0C32,43.65,30.5,34.52,27.1,34.52ZM27.1,48a2.88,2.88,0,0,1-2.88-2.88c0-2.54,1.81-8.36,2.87-8.58,1.07.22,2.88,6,2.88,8.58A2.88,2.88,0,0,1,27.1,48Z"/><path class="cls-5" d="M60.75,15.37l-3.85-4.3a1,1,0,0,0-1.49,1.34l3.45,3.86a3.11,3.11,0,0,0-3.7,3v3a3,3,0,0,0,3,3H59V55a1.63,1.63,0,0,1-3.26,0V34.66a5.55,5.55,0,0,0-4.55-5.45v-4a1,1,0,0,0-1-1H45.83V8.38a5,5,0,0,0-5-5H13.39a5,5,0,0,0-5,5V24.25H4a1,1,0,0,0-1,1V35a1,1,0,0,0,1,1H8.36V55.56h-2a1,1,0,0,0-1,1v3.08a1,1,0,0,0,1,1H47.85a1,1,0,0,0,1-1V56.56a1,1,0,0,0-1-1h-2V36h4.36a1,1,0,0,0,1-1v-3.7a3.52,3.52,0,0,1,2.55,3.38V55A3.63,3.63,0,0,0,61,55V17.27C61,16.9,61.14,15.67,60.75,15.37ZM5,34V26.25H8.36V34ZM46.85,58.64H7.34V57.56H46.85ZM10.36,55.56c0-13.66,0-33.58,0-47.18a3,3,0,0,1,3-3H40.81a3,3,0,0,1,3,3V55.56ZM49.19,34H45.83V26.25h3.36Zm9-10.79a1,1,0,0,1-1-1v-3a1,1,0,0,1,1-1H59v4.92Z"/></g></svg>