<?xml version="1.0" encoding="UTF-8" standalone="no"?> <svg xmlns="http://www.w3.org/2000/svg" xmlns:xlink="http://www.w3.org/1999/xlink" viewBox="0 0 64 64"><defs><style>.cls-1{fill:url(#linear-gradient);}.cls-2{fill:url(#linear-gradient-2);}.cls-3{fill:url(#linear-gradient-3);}.cls-4{fill:url(#linear-gradient-4);}.cls-5{fill:url(#linear-gradient-5);}.cls-6{fill:url(#linear-gradient-6);}.cls-7{fill:url(#linear-gradient-7);}.cls-8{fill:url(#linear-gradient-8);}.cls-9{fill:url(#linear-gradient-9);}.cls-10{fill:url(#linear-gradient-10);}.cls-11{fill:url(#linear-gradient-11);}.cls-12{fill:url(#linear-gradient-12);}.cls-13{fill:url(#linear-gradient-13);}</style><linearGradient id="linear-gradient" x1="11.66" y1="32.02" x2="52.34" y2="32.02" gradientUnits="userSpaceOnUse"><stop offset="0" stop-color="#17a6d7"/><stop offset="1" stop-color="#9d31fe"/></linearGradient><linearGradient id="linear-gradient-2" x1="19.11" y1="20.5" x2="26.4" y2="20.5" xlink:href="#linear-gradient"/><linearGradient id="linear-gradient-3" x1="27.6" y1="18.71" x2="36.72" y2="18.71" xlink:href="#linear-gradient"/><linearGradient id="linear-gradient-4" x1="27.6" y1="21.92" x2="45.34" y2="21.92" xlink:href="#linear-gradient"/><linearGradient id="linear-gradient-5" x1="19.11" y1="30.36" x2="26.4" y2="30.36" xlink:href="#linear-gradient"/><linearGradient id="linear-gradient-6" x1="27.6" y1="28.56" x2="36.72" y2="28.56" xlink:href="#linear-gradient"/><linearGradient id="linear-gradient-7" x1="27.6" y1="31.78" x2="45.34" y2="31.78" xlink:href="#linear-gradient"/><linearGradient id="linear-gradient-8" x1="19.11" y1="40.22" x2="26.4" y2="40.22" xlink:href="#linear-gradient"/><linearGradient id="linear-gradient-9" x1="27.6" y1="38.42" x2="36.72" y2="38.42" xlink:href="#linear-gradient"/><linearGradient id="linear-gradient-10" x1="27.6" y1="41.63" x2="45.34" y2="41.63" xlink:href="#linear-gradient"/><linearGradient id="linear-gradient-11" x1="19.11" y1="50.07" x2="26.4" y2="50.07" xlink:href="#linear-gradient"/><linearGradient id="linear-gradient-12" x1="27.6" y1="48.28" x2="36.72" y2="48.28" xlink:href="#linear-gradient"/><linearGradient id="linear-gradient-13" x1="27.6" y1="51.49" x2="45.34" y2="51.49" xlink:href="#linear-gradient"/></defs><g id="Layer_22" data-name="Layer 22"><path class="cls-1" d="M49,9.32H40.18A3.51,3.51,0,0,0,36,6.13a4.12,4.12,0,0,0-8,0h-.84a3.36,3.36,0,0,0-3.35,3.19H15.05a3.4,3.4,0,0,0-3.39,3.4V57.6A3.4,3.4,0,0,0,15.05,61H49a3.4,3.4,0,0,0,3.39-3.4V12.72A3.4,3.4,0,0,0,49,9.32ZM24.8,14.49H46.74V55.83H17.26V14.49Zm1-5a1.37,1.37,0,0,1,1.37-1.38h1.7a1,1,0,0,0,1-1,2.13,2.13,0,0,1,4.26,0,1,1,0,0,0,1,1h1.7A1.37,1.37,0,0,1,38.2,9.51v3H25.8ZM50.34,57.6A1.4,1.4,0,0,1,49,59H15.05a1.4,1.4,0,0,1-1.39-1.4V12.72a1.4,1.4,0,0,1,1.39-1.4H23.8v1.17H16.26a1,1,0,0,0-1,1V56.83a1,1,0,0,0,1,1H47.74a1,1,0,0,0,1-1V13.49a1,1,0,0,0-1-1H40.2V11.32H49a1.4,1.4,0,0,1,1.39,1.4Z"/><path class="cls-2" d="M20.11,24H25.4a1,1,0,0,0,1-1V18a1,1,0,0,0-1-1H20.11a1,1,0,0,0-1,1v5A1,1,0,0,0,20.11,24Zm1-5H24.4v3H21.11Z"/><path class="cls-3" d="M28.58,19.71h7.16a1,1,0,0,0,0-2H28.58A1,1,0,0,0,28.58,19.71Z"/><path class="cls-4" d="M28.58,22.92H44.36a1,1,0,0,0,0-2H28.58A1,1,0,0,0,28.58,22.92Z"/><path class="cls-5" d="M20.11,33.88H25.4a1,1,0,0,0,1-1v-5a1,1,0,0,0-1-1H20.11a1,1,0,0,0-1,1v5A1,1,0,0,0,20.11,33.88Zm1-5H24.4v3H21.11Z"/><path class="cls-6" d="M28.58,29.56h7.16a1,1,0,0,0,0-2H28.58A1,1,0,0,0,28.58,29.56Z"/><path class="cls-7" d="M28.58,32.78H44.36a1,1,0,0,0,0-2H28.58A1,1,0,0,0,28.58,32.78Z"/><path class="cls-8" d="M20.11,43.73H25.4a1,1,0,0,0,1-1v-5a1,1,0,0,0-1-1H20.11a1,1,0,0,0-1,1v5A1,1,0,0,0,20.11,43.73Zm1-5H24.4v3H21.11Z"/><path class="cls-9" d="M28.58,39.42h7.16a1,1,0,0,0,0-2H28.58A1,1,0,0,0,28.58,39.42Z"/><path class="cls-10" d="M28.58,42.63H44.36a1,1,0,0,0,0-2H28.58A1,1,0,0,0,28.58,42.63Z"/><path class="cls-11" d="M20.11,53.59H25.4a1,1,0,0,0,1-1v-5a1,1,0,0,0-1-1H20.11a1,1,0,0,0-1,1v5A1,1,0,0,0,20.11,53.59Zm1-5H24.4v3H21.11Z"/><path class="cls-12" d="M28.58,49.28h7.16a1,1,0,0,0,0-2H28.58A1,1,0,0,0,28.58,49.28Z"/><path class="cls-13" d="M28.58,52.49H44.36a1,1,0,0,0,0-2H28.58A1,1,0,0,0,28.58,52.49Z"/></g></svg>