<?xml version="1.0" encoding="UTF-8" standalone="no"?>
<svg width="53" height="54" viewBox="0 0 53 54" fill="none" xmlns="http://www.w3.org/2000/svg">
	<path fill-rule="evenodd" clip-rule="evenodd" d="M46.5 15.625V46.5C46.5 50.0899 43.5899 53 40 53H36.75V49.75H40C41.7949 49.75 43.25 48.2949 43.25 46.5V15.625H36.75C34.0576 15.625 31.875 13.4424 31.875 10.75V4.25H14C12.2051 4.25 10.75 5.70507 10.75 7.5V36.75H7.5V7.5C7.5 3.91015 10.4102 1 14 1H31.875L46.5 15.625ZM6.19873 39.5125H1V52.5093H3.5708V48.1485H6.17969C7.11279 48.1485 7.90625 47.9613 8.56006 47.5867C9.22021 47.2059 9.72168 46.6917 10.0645 46.0443C10.4136 45.3904 10.5881 44.6573 10.5881 43.8448C10.5881 43.0323 10.4167 42.2991 10.074 41.6453C9.7312 40.9915 9.23291 40.4742 8.5791 40.0933C7.93164 39.7061 7.13818 39.5125 6.19873 39.5125ZM7.96973 43.8448C7.96973 44.3272 7.87769 44.7398 7.6936 45.0826C7.51587 45.419 7.25879 45.6793 6.92236 45.8633C6.58594 46.0411 6.17969 46.13 5.70361 46.13H3.56128V41.5596H5.70361C6.41455 41.5596 6.96997 41.7564 7.36987 42.15C7.76978 42.5435 7.96973 43.1085 7.96973 43.8448ZM11.9269 39.5125V52.5093H16.6686C17.9762 52.5093 19.0584 52.2523 19.9154 51.7381C20.7787 51.2239 21.4229 50.4781 21.8482 49.5006C22.2735 48.523 22.4862 47.3487 22.4862 45.9776C22.4862 44.6129 22.2735 43.4481 21.8482 42.4832C21.4293 41.5184 20.7914 40.7821 19.9344 40.2742C19.0775 39.7664 17.9889 39.5125 16.6686 39.5125H11.9269ZM14.4977 41.6072H16.3258C17.1319 41.6072 17.7921 41.7723 18.3062 42.1024C18.8268 42.4324 19.2108 42.9244 19.4583 43.5782C19.7123 44.232 19.8392 45.0477 19.8392 46.0252C19.8392 46.7615 19.7662 47.4027 19.6202 47.9486C19.4806 48.4945 19.2679 48.9515 18.9823 49.3196C18.703 49.6815 18.3412 49.9544 17.8968 50.1385C17.4525 50.3162 16.9288 50.4051 16.3258 50.4051H14.4977V41.6072ZM26.6623 47.3392V52.5093H24.0915V39.5125H32.3752V41.6358H26.6623V45.2635H31.8801V47.3392H26.6623Z" fill="#03A062"/>
	<path d="M46.5 15.625H47V15.4179L46.8536 15.2714L46.5 15.625ZM36.75 53H36.25V53.5H36.75V53ZM36.75 49.75V49.25H36.25V49.75H36.75ZM43.25 15.625H43.75V15.125H43.25V15.625ZM31.875 4.25H32.375V3.75H31.875V4.25ZM10.75 36.75V37.25H11.25V36.75H10.75ZM7.5 36.75H7V37.25H7.5V36.75ZM31.875 1L32.2286 0.646447L32.0821 0.5H31.875V1ZM1 39.5125V39.0125H0.5V39.5125H1ZM1 52.5093H0.5V53.0093H1V52.5093ZM3.5708 52.5093V53.0093H4.0708V52.5093H3.5708ZM3.5708 48.1485V47.6485H3.0708V48.1485H3.5708ZM8.56006 47.5867L8.80858 48.0206L8.80992 48.0198L8.56006 47.5867ZM10.0645 46.0443L9.62339 45.8087L9.62256 45.8103L10.0645 46.0443ZM8.5791 40.0933L8.32246 40.5225L8.32743 40.5254L8.5791 40.0933ZM7.6936 45.0826L7.2531 44.846L7.25151 44.849L7.6936 45.0826ZM6.92236 45.8633L7.15595 46.3055L7.16237 46.302L6.92236 45.8633ZM3.56128 46.13H3.06128V46.63H3.56128V46.13ZM3.56128 41.5596V41.0596H3.06128V41.5596H3.56128ZM11.9269 52.5093H11.4269V53.0093H11.9269V52.5093ZM11.9269 39.5125V39.0125H11.4269V39.5125H11.9269ZM19.9154 51.7381L19.6595 51.3085L19.6581 51.3094L19.9154 51.7381ZM21.8482 42.4832L21.3896 42.6824L21.3907 42.6849L21.8482 42.4832ZM14.4977 41.6072V41.1072H13.9977V41.6072H14.4977ZM18.3062 42.1024L18.0361 42.5231L18.0385 42.5246L18.3062 42.1024ZM19.4583 43.5782L18.9907 43.7553L18.9923 43.7592L19.4583 43.5782ZM19.6202 47.9486L19.1372 47.8194L19.1358 47.8246L19.6202 47.9486ZM18.9823 49.3196L18.5872 49.0131L18.5865 49.0141L18.9823 49.3196ZM17.8968 50.1385L18.0825 50.6028L18.0882 50.6004L17.8968 50.1385ZM14.4977 50.4051H13.9977V50.9051H14.4977V50.4051ZM26.6623 52.5093V53.0093H27.1623V52.5093H26.6623ZM26.6623 47.3392V46.8392H26.1623V47.3392H26.6623ZM24.0915 52.5093H23.5915V53.0093H24.0915V52.5093ZM24.0915 39.5125V39.0125H23.5915V39.5125H24.0915ZM32.3752 39.5125H32.8752V39.0125H32.3752V39.5125ZM32.3752 41.6358V42.1358H32.8752V41.6358H32.3752ZM26.6623 41.6358V41.1358H26.1623V41.6358H26.6623ZM26.6623 45.2635H26.1623V45.7635H26.6623V45.2635ZM31.8801 45.2635H32.3801V44.7635H31.8801V45.2635ZM31.8801 47.3392V47.8392H32.3801V47.3392H31.8801ZM47 46.5V15.625H46V46.5H47ZM40 53.5C43.866 53.5 47 50.366 47 46.5H46C46 49.8137 43.3137 52.5 40 52.5V53.5ZM36.75 53.5H40V52.5H36.75V53.5ZM36.25 49.75V53H37.25V49.75H36.25ZM40 49.25H36.75V50.25H40V49.25ZM42.75 46.5C42.75 48.0188 41.5188 49.25 40 49.25V50.25C42.0711 50.25 43.75 48.5711 43.75 46.5H42.75ZM42.75 15.625V46.5H43.75V15.625H42.75ZM36.75 16.125H43.25V15.125H36.75V16.125ZM31.375 10.75C31.375 13.7185 33.7815 16.125 36.75 16.125V15.125C34.3338 15.125 32.375 13.1662 32.375 10.75H31.375ZM31.375 4.25V10.75H32.375V4.25H31.375ZM14 4.75H31.875V3.75H14V4.75ZM11.25 7.5C11.25 5.98122 12.4812 4.75 14 4.75V3.75C11.9289 3.75 10.25 5.42893 10.25 7.5H11.25ZM11.25 36.75V7.5H10.25V36.75H11.25ZM7.5 37.25H10.75V36.25H7.5V37.25ZM7 7.5V36.75H8V7.5H7ZM14 0.5C10.134 0.5 7 3.634 7 7.5H8C8 4.18629 10.6863 1.5 14 1.5V0.5ZM31.875 0.5H14V1.5H31.875V0.5ZM46.8536 15.2714L32.2286 0.646447L31.5214 1.35355L46.1464 15.9786L46.8536 15.2714ZM1 40.0125H6.19873V39.0125H1V40.0125ZM1.5 52.5093V39.5125H0.5V52.5093H1.5ZM3.5708 52.0093H1V53.0093H3.5708V52.0093ZM3.0708 48.1485V52.5093H4.0708V48.1485H3.0708ZM6.17969 47.6485H3.5708V48.6485H6.17969V47.6485ZM8.31154 47.1529C7.74944 47.4749 7.04619 47.6485 6.17969 47.6485V48.6485C7.1794 48.6485 8.06306 48.4476 8.80858 48.0206L8.31154 47.1529ZM9.62256 45.8103C9.32562 46.3712 8.89234 46.8178 8.3102 47.1536L8.80992 48.0198C9.54809 47.594 10.1177 47.0122 10.5063 46.2782L9.62256 45.8103ZM10.0881 43.8448C10.0881 44.5832 9.93019 45.2342 9.6234 45.8087L10.5055 46.2798C10.897 45.5467 11.0881 44.7314 11.0881 43.8448H10.0881ZM9.63114 41.8775C9.93269 42.4527 10.0881 43.1049 10.0881 43.8448H11.0881C11.0881 42.9597 10.9008 42.1456 10.5168 41.4132L9.63114 41.8775ZM8.32743 40.5254C8.90213 40.8602 9.33316 41.3091 9.63114 41.8775L10.5168 41.4132C10.1292 40.6739 9.56369 40.0882 8.83078 39.6613L8.32743 40.5254ZM6.19873 40.0125C7.06981 40.0125 7.7695 40.1917 8.32247 40.5224L8.83573 39.6642C8.09378 39.2205 7.20656 39.0125 6.19873 39.0125V40.0125ZM8.1341 45.3192C8.36553 44.8882 8.46973 44.3903 8.46973 43.8448H7.46973C7.46973 44.2642 7.38984 44.5914 7.25311 44.846L8.1341 45.3192ZM7.16237 46.302C7.58408 46.0712 7.91178 45.74 8.1357 45.3161L7.25151 44.849C7.11996 45.098 6.93349 45.2873 6.68236 45.4247L7.16237 46.302ZM5.70361 46.63C6.24104 46.63 6.73166 46.5296 7.15592 46.3054L6.6888 45.4213C6.44021 45.5526 6.11834 45.63 5.70361 45.63V46.63ZM3.56128 46.63H5.70361V45.63H3.56128V46.63ZM3.06128 41.5596V46.13H4.06128V41.5596H3.06128ZM5.70361 41.0596H3.56128V42.0596H5.70361V41.0596ZM7.72059 41.7936C7.20387 41.2851 6.50901 41.0596 5.70361 41.0596V42.0596C6.32009 42.0596 6.73607 42.2277 7.01916 42.5063L7.72059 41.7936ZM8.46973 43.8448C8.46973 43.0181 8.24313 42.3079 7.72059 41.7936L7.01916 42.5063C7.29642 42.7792 7.46973 43.1989 7.46973 43.8448H8.46973ZM12.4269 52.5093V39.5125H11.4269V52.5093H12.4269ZM16.6686 52.0093H11.9269V53.0093H16.6686V52.0093ZM19.6581 51.3094C18.8994 51.7646 17.9128 52.0093 16.6686 52.0093V53.0093C18.0395 53.0093 19.2175 52.7399 20.1726 52.1669L19.6581 51.3094ZM21.3898 49.3011C21.0035 50.1888 20.4272 50.8513 19.6595 51.3085L20.1712 52.1677C21.1301 51.5966 21.8424 50.7674 22.3067 49.7L21.3898 49.3011ZM21.9862 45.9776C21.9862 47.2989 21.781 48.4017 21.3898 49.3011L22.3067 49.7C22.766 48.6443 22.9862 47.3985 22.9862 45.9776H21.9862ZM21.3907 42.6849C21.7811 43.5704 21.9862 44.6627 21.9862 45.9776H22.9862C22.9862 44.563 22.766 43.3257 22.3058 42.2816L21.3907 42.6849ZM19.6795 40.7044C20.4407 41.1554 21.0101 41.8083 21.3896 42.6824L22.3069 42.2841C21.8485 41.2285 21.142 40.4087 20.1893 39.8441L19.6795 40.7044ZM16.6686 40.0125C17.9275 40.0125 18.921 40.2549 19.6795 40.7044L20.1893 39.8441C19.234 39.278 18.0502 39.0125 16.6686 39.0125V40.0125ZM11.9269 40.0125H16.6686V39.0125H11.9269V40.0125ZM16.3258 41.1072H14.4977V42.1072H16.3258V41.1072ZM18.5764 41.6816C17.9596 41.2857 17.1977 41.1072 16.3258 41.1072V42.1072C17.0661 42.1072 17.6245 42.2589 18.0361 42.5231L18.5764 41.6816ZM19.926 43.4011C19.6455 42.6603 19.198 42.0758 18.574 41.6801L18.0385 42.5246C18.4555 42.7891 18.7761 43.1884 18.9907 43.7552L19.926 43.4011ZM20.3392 46.0252C20.3392 45.0084 20.2077 44.1266 19.9244 43.3972L18.9923 43.7592C19.2168 44.3374 19.3392 45.087 19.3392 46.0252H20.3392ZM20.1032 48.0777C20.2633 47.4792 20.3392 46.7928 20.3392 46.0252H19.3392C19.3392 46.7303 19.2691 47.3261 19.1372 47.8194L20.1032 48.0777ZM19.3773 49.6261C19.7128 49.1938 19.9515 48.6711 20.1046 48.0725L19.1358 47.8246C19.0097 48.3178 18.8231 48.7092 18.5872 49.0132L19.3773 49.6261ZM18.0882 50.6004C18.6088 50.3848 19.0426 50.0597 19.3781 49.6252L18.5865 49.0141C18.3633 49.3032 18.0735 49.5241 17.7055 49.6766L18.0882 50.6004ZM16.3258 50.9051C16.9765 50.9051 17.566 50.8094 18.0825 50.6027L17.7111 49.6743C17.339 49.8231 16.8811 49.9051 16.3258 49.9051V50.9051ZM14.4977 50.9051H16.3258V49.9051H14.4977V50.9051ZM13.9977 41.6072V50.4051H14.9977V41.6072H13.9977ZM27.1623 52.5093V47.3392H26.1623V52.5093H27.1623ZM24.0915 53.0093H26.6623V52.0093H24.0915V53.0093ZM23.5915 39.5125V52.5093H24.5915V39.5125H23.5915ZM32.3752 39.0125H24.0915V40.0125H32.3752V39.0125ZM32.8752 41.6358V39.5125H31.8752V41.6358H32.8752ZM26.6623 42.1358H32.3752V41.1358H26.6623V42.1358ZM27.1623 45.2635V41.6358H26.1623V45.2635H27.1623ZM31.8801 44.7635H26.6623V45.7635H31.8801V44.7635ZM32.3801 47.3392V45.2635H31.3801V47.3392H32.3801ZM26.6623 47.8392H31.8801V46.8392H26.6623V47.8392Z" fill="#03A062"/>
</svg>
