<?xml version="1.0" encoding="utf-8"?>
<svg version="1.1" id="gradient" xmlns="http://www.w3.org/2000/svg" xmlns:xlink="http://www.w3.org/1999/xlink" x="0px" y="0px" viewBox="0 0 512 512" enable-background="new 0 0 512 512" xml:space="preserve">
	<linearGradient id="SVGID_1_" gradientUnits="userSpaceOnUse" x1="86.574" y1="419.5375" x2="425.984" y2="80.1275">
		<stop  offset="0" style="stop-color:#5EBCE5"/>
		<stop  offset="0.4816" style="stop-color:#B678E6"/>
		<stop  offset="1" style="stop-color:#E25B61"/>
	</linearGradient>
	<path fill="url(#SVGID_1_)" d="M362.93,424.07c8.195,0,16.39-3.119,22.628-9.356c6.044-6.045,9.373-14.081,9.373-22.628
	c0-8.548-3.329-16.584-9.373-22.627c-6.044-6.045-14.08-9.373-22.628-9.373c-8.547,0-16.583,3.328-22.628,9.372
	c-12.476,12.477-12.476,32.778,0.001,45.256C346.541,420.952,354.735,424.07,362.93,424.07z M351.616,380.772
	c3.021-3.022,7.04-4.687,11.313-4.687c4.274,0,8.292,1.664,11.314,4.687c3.021,3.021,4.687,7.039,4.687,11.313
	c0,4.273-1.665,8.292-4.688,11.313c-6.237,6.239-16.388,6.238-22.627,0.001C345.378,397.161,345.378,387.011,351.616,380.772z
	 M164.94,160.154c-9.358-9.357-24.584-9.355-33.942,0c-9.357,9.357-9.357,24.584,0,33.941c4.533,4.533,10.561,7.029,16.972,7.029
	s12.438-2.496,16.971-7.029C174.298,184.738,174.298,169.512,164.94,160.154z M153.626,182.782c-1.511,1.511-3.52,2.343-5.656,2.343
	s-4.146-0.832-5.657-2.344c-3.119-3.119-3.119-8.193-0.001-11.312c1.561-1.56,3.609-2.34,5.658-2.34s4.098,0.78,5.656,2.34
	C156.745,174.588,156.745,179.662,153.626,182.782z M125.961,368.418c-6.044,6.045-9.372,14.081-9.372,22.628
	c0,8.548,3.328,16.584,9.372,22.627c6.044,6.045,14.08,9.374,22.628,9.374c8.547,0,16.583-3.329,22.628-9.373
	c12.476-12.477,12.476-32.778-0.001-45.256C158.738,355.94,138.437,355.944,125.961,368.418z M159.902,402.359
	c-3.021,3.022-7.04,4.688-11.313,4.688c-4.274,0-8.292-1.665-11.314-4.688c-3.021-3.021-4.686-7.039-4.686-11.313
	c0-4.273,1.664-8.292,4.687-11.313c3.119-3.12,7.216-4.679,11.313-4.679c4.097,0,8.194,1.56,11.313,4.678
	C166.141,385.971,166.141,396.121,159.902,402.359z M340.922,255.282l22.627,22.627c1.562,1.562,3.609,2.343,5.657,2.343
	s4.095-0.781,5.657-2.343l118.794-118.794c3.124-3.125,3.124-8.189,0-11.314L391.834,45.978c-3.125-3.123-8.189-3.123-11.314,0
	L261.726,164.771c-3.124,3.125-3.124,8.189,0,11.314l22.627,22.627c2.436,2.435,6.155,3.037,9.234,1.498
	c4.65-2.324,9.719-3.202,14.641-2.743l-52.987,52.987l-51.949-51.948c4.922-0.459,9.99,0.419,14.639,2.743
	c3.082,1.54,6.8,0.938,9.235-1.499l22.627-22.627c3.124-3.125,3.124-8.189,0-11.314L130.999,47.017
	c-1.501-1.5-3.535-2.343-5.657-2.343s-4.156,0.843-5.657,2.343L17.861,148.841c-3.124,3.125-3.124,8.189,0,11.314l118.794,118.794
	c1.501,1.5,3.535,2.343,5.657,2.343s4.156-0.843,5.657-2.344l22.627-22.628c2.435-2.435,3.038-6.154,1.498-9.233
	c-2.323-4.647-3.202-9.712-2.744-14.631l51.945,51.945l-27.033,27.033c-11.106,11.106-26.079,16.856-41.081,15.787
	c-18.544-1.338-36.717,5.44-49.847,18.571c-12.216,12.21-18.873,28.448-18.747,45.724c0.126,17.272,7.026,33.416,19.428,45.453
	c11.85,11.512,27.557,17.902,44.229,17.992c0.12,0.001,0.239,0.001,0.359,0.001c16.54,0,32.175-6.212,44.059-17.513
	c13.715-13.036,20.934-31.339,19.805-50.214c-0.931-15.674,4.803-30.931,15.729-41.857l27.04-27.038l28.076,28.077
	c10.934,10.933,16.671,26.19,15.742,41.854c-1.131,18.877,6.087,37.18,19.803,50.216c11.883,11.301,27.514,17.512,44.054,17.511
	c0.121,0,0.244,0,0.365-0.001c16.67-0.092,32.376-6.48,44.227-17.988c12.399-12.04,19.299-28.182,19.426-45.45
	c0.127-17.274-6.529-33.513-18.741-45.726c-13.132-13.132-31.302-19.911-49.849-18.572c-15.014,1.076-29.977-4.682-41.082-15.788
	l-28.075-28.075l52.985-52.98c0.458,4.92-0.42,9.984-2.743,14.631C337.884,249.128,338.487,252.847,340.922,255.282z
	 M386.177,62.948l90.51,90.51l-11.313,11.313l-90.51-90.51L386.177,62.948z M363.549,85.576l90.51,90.51l-11.314,11.314
	l-90.51-90.51L363.549,85.576z M34.832,154.498l90.51-90.511l11.314,11.314l-90.511,90.51L34.832,154.498z M57.459,177.125
	l90.511-90.51l11.313,11.313l-90.51,90.511L57.459,177.125z M165.857,204.491c-11.728,11.728-15.571,28.917-10.353,44.294
	l-13.192,13.193l-62.225-62.225l90.51-90.511l62.225,62.225l-13.192,13.193c-15.375-5.219-32.565-1.375-44.295,10.353
	L165.857,204.491z M176.288,216.763c0.292-0.321,0.575-0.648,0.884-0.958l9.478-9.478c0.308-0.308,0.634-0.59,0.953-0.881
	l56.323,56.323l-11.316,11.316L176.288,216.763z M305.942,323.787c14.392,14.39,33.906,21.833,53.539,20.433
	c13.913-0.989,27.545,4.08,37.392,13.928c9.159,9.158,14.151,21.338,14.056,34.293c-0.095,12.951-5.271,25.058-14.572,34.09
	c-18.24,17.713-48.062,17.874-66.475,0.361c-10.289-9.779-15.704-23.507-14.855-37.668c1.2-20.23-6.235-39.956-20.399-54.121
	l-28.076-28.076l11.316-11.315L305.942,323.787z M216.883,334.062c-14.158,14.159-21.59,33.886-20.388,54.125
	c0.847,14.158-4.568,27.886-14.857,37.666c-18.419,17.516-48.238,17.354-66.476-0.363c-9.304-9.031-14.479-21.139-14.574-34.092
	c-0.096-12.956,4.897-25.134,14.06-34.291c9.847-9.848,23.475-14.917,37.392-13.928c19.63,1.407,39.148-6.042,53.538-20.433
	l118.34-118.339c0.319,0.29,0.645,0.572,0.952,0.88l9.478,9.477c0.31,0.31,0.593,0.637,0.885,0.959L216.883,334.062z
	 M336.183,193.974c-11.729-11.727-28.919-15.572-44.293-10.352l-13.193-13.193l62.225-62.225l90.51,90.51l-62.225,62.225
	l-13.192-13.193c5.219-15.376,1.374-32.565-10.353-44.294L336.183,193.974z M380.52,159.114c-9.357-9.357-24.584-9.355-33.941,0
	c0,0.001,0,0.001,0,0.001c-9.356,9.358-9.356,24.584,0,33.941c4.68,4.679,10.824,7.018,16.971,7.018
	c6.146,0,12.293-2.34,16.972-7.018C389.877,183.699,389.877,168.474,380.52,159.114z M369.207,181.742
	c-3.121,3.119-8.197,3.119-11.314,0c-3.119-3.118-3.119-8.194,0-11.313c3.119-3.121,8.194-3.118,11.313-0.001
	C372.325,173.548,372.325,178.623,369.207,181.742z"/>
</svg>
