<?xml version="1.0" standalone="no"?>
<!DOCTYPE svg PUBLIC "-//W3C//DTD SVG 20010904//EN" "http://www.w3.org/TR/2001/REC-SVG-20010904/DTD/svg10.dtd">
<svg version="1.0" xmlns="http://www.w3.org/2000/svg" width="225.000000pt" height="225.000000pt" viewBox="0 0 225.000000 225.000000" preserveAspectRatio="xMidYMid meet">
	<g transform="translate(0.000000,225.000000) scale(0.100000,-0.100000)" fill="#03A062" stroke="none">
		<path d="M1050 2244 c-295 -32 -505 -125 -697 -307 -101 -96 -164 -182 -228
			-312 -67 -135 -100 -247 -114 -390 -45 -455 190 -892 592 -1101 171 -89 328
			-127 522 -127 436 0 818 239 1006 628 298 617 -17 1353 -668 1559 -121 38
			-312 61 -413 50z m487 -466 c6 -7 26 -53 46 -103 20 -49 72 -180 117 -290 46
			-113 80 -211 78 -225 -3 -22 -16 -30 -101 -64 -96 -38 -99 -39 -116 -20 -19
			21 -251 589 -251 615 0 24 20 37 102 70 80 31 111 35 125 17z m-395 -495 c164
			-164 298 -304 298 -311 0 -18 -127 -150 -153 -158 -16 -5 -75 50 -318 292
			-191 191 -299 306 -299 319 0 26 128 155 155 155 13 0 124 -104 317 -297z
			m-277 -460 c160 -64 299 -124 310 -134 19 -18 19 -20 -20 -116 -34 -84 -43
			-98 -65 -101 -22 -2 -134 40 -530 201 -47 19 -89 42 -95 51 -7 11 -3 36 14 86
			30 87 56 130 78 130 10 0 149 -52 308 -117z"/>
	</g>
</svg>
